<svg xmlns="http://www.w3.org/2000/svg" version="1.1" xmlns:xlink="http://www.w3.org/1999/xlink" xmlns:svgjs="http://svgjs.dev/svgjs" width="1500" height="1500" viewBox="0 0 1500 1500"><rect width="1500" height="1500" fill="#ffffff"></rect><g transform="matrix(0.6666666666666666,0,0,0.6666666666666666,249.39407050522527,593.2416044087003)"><svg viewBox="0 0 396 124" data-background-color="#61777f" preserveAspectRatio="xMidYMid meet" height="469" width="1500" xmlns="http://www.w3.org/2000/svg" xmlns:xlink="http://www.w3.org/1999/xlink"><g id="tight-bounds" transform="matrix(1,0,0,1,0.23994807993079803,0.16857479740249914)"><svg viewBox="0 0 395.52 123.66285040519499" height="123.66285040519499" width="395.52"><g><svg viewBox="0 0 631.1031779474018 197.32002903709724" height="123.66285040519499" width="395.52"><g transform="matrix(1,0,0,1,235.58317794740185,58.14006658832212)"><svg viewBox="0 0 395.52 81.039895860453" height="81.039895860453" width="395.52"><g id="textblocktransform"><svg viewBox="0 0 395.52 81.039895860453" height="81.039895860453" width="395.52" id="textblock"><g><svg viewBox="0 0 395.52 81.039895860453" height="81.039895860453" width="395.52"><g transform="matrix(1,0,0,1,0,0)"><svg width="395.52" viewBox="1.6749999999999998 -39 193.54891891891893 39.35" height="81.039895860453" data-palette-color="#ffffff"><g class="wordmark-text-0" data-fill-palette-color="primary" id="text-0"><path d="M14.95-22.2L14.95-22.2Q15-22.15 15-21.98 15-21.8 14.95-21.7L14.95-21.7Q14.5-20.25 13.4-19.65 12.3-19.05 11.45-19.05L11.45-19.05Q10.4-19.05 9.3-19.23 8.2-19.4 7.2-20.15L7.2-20.15Q7.1-20.25 6.95-20.35 6.8-20.45 6.8-20.55L6.8-20.55Q6.8-20.7 6.95-20.78 7.1-20.85 7.2-20.9L7.2-20.9Q7.65-21 8.38-21.08 9.1-21.15 9.8-21.05L9.8-21.05Q10.3-20.95 11-20.95 11.7-20.95 12.43-21.05 13.15-21.15 13.75-21.38 14.35-21.6 14.65-22.05L14.65-22.05Q14.8-22.25 14.95-22.2ZM15.3-23.75L15.3-23.75 15.15-23.5Q14.3-22.4 13.35-22.08 12.4-21.75 11.35-21.8 10.3-21.85 9.22-22.08 8.15-22.3 7.1-22.35L7.1-22.35Q5.7-22.4 4.3-21.5 2.9-20.6 1.9-18.35L1.9-18.35Q1.75-18.05 1.7-18.23 1.65-18.4 1.7-18.55L1.7-18.55Q2.1-20.05 2.65-21.05 3.2-22.05 3.83-22.68 4.45-23.3 5.15-23.6 5.85-23.9 6.6-24L6.6-24Q7.45-26.85 7.93-29.58 8.4-32.3 8-34.75L8-34.75Q8-34.95 8-34.95L8-34.95Q8.1-35 8.2-34.9 8.3-34.8 8.3-34.75L8.3-34.75Q9.4-32.35 9.2-29.63 9-26.9 8.2-23.9L8.2-23.9Q8.45-23.85 8.6-23.85 8.75-23.85 8.95-23.85L8.95-23.85Q9.2-25.15 9.43-26.63 9.65-28.1 9.78-29.45 9.9-30.8 9.85-31.9 9.8-33 9.5-33.55L9.5-33.55Q9.35-34 9.5-34L9.5-34Q9.6-34 9.65-33.9 9.7-33.8 9.8-33.7L9.8-33.7Q10.5-33 10.9-31.8 11.3-30.6 11.45-29.25 11.6-27.9 11.55-26.58 11.5-25.25 11.25-24.25L11.25-24.25 11.05-23.45Q11.2-23.35 11.35-23.35 11.5-23.35 11.65-23.3L11.65-23.3Q11.95-24.8 12.18-26.3 12.4-27.8 12.35-29.45L12.35-29.45Q12.35-29.8 12.4-29.8L12.4-29.8Q12.5-29.8 12.55-29.65 12.6-29.5 12.65-29.4L12.65-29.4Q13.25-28.3 13.23-26.65 13.2-25 12.95-23.15L12.95-23.15Q14.05-23.15 15.05-23.75L15.05-23.75Q15.3-23.9 15.3-23.75ZM4.95-20.35L4.95-20.35Q4.95-20.1 4.67-19.85 4.4-19.6 4.25-19.5L4.25-19.5Q4-19.3 3.68-19.03 3.35-18.75 3.1-18.45L3.1-18.45Q2.85-18.05 2.63-17.75 2.4-17.45 2.25-16.9L2.25-16.9Q2.2-16.8 2.13-16.73 2.05-16.65 2-16.7L2-16.7Q1.85-16.85 2-17.35L2-17.35Q2.2-18.1 2.4-18.57 2.6-19.05 3.15-19.6L3.15-19.6Q3.35-19.8 3.65-20 3.95-20.2 4.25-20.35 4.55-20.5 4.75-20.5 4.95-20.5 4.95-20.35ZM8.85-0.25L8.85-0.25Q9.1-0.35 9.05-0.2 9-0.05 8.9 0L8.9 0Q8 0.3 7-0.1 6-0.5 5.15-1.35 4.3-2.2 3.7-3.33 3.1-4.45 2.95-5.55L2.95-5.55Q2.7-7.9 2.9-10.1 3.1-12.3 3.65-14.45L3.65-14.45 4.5-17.6Q4.2-17.6 3.9-17.75L3.9-17.75Q3.55-17.85 3.55-18L3.55-18Q3.55-18.1 3.9-18.3L3.9-18.3Q5.3-19 6.73-18.9 8.15-18.8 9.6-18.55L9.6-18.55Q10.5-18.4 11.43-18.32 12.35-18.25 13.45-18.7L13.45-18.7Q13.55-18.8 13.65-18.75L13.65-18.75Q13.75-18.65 13.6-18.4L13.6-18.4Q13.3-17.75 12.75-17.45 12.2-17.15 11.6-17L11.6-17Q11.2-15.7 10.9-14.68 10.6-13.65 10.4-12.95L10.4-12.95Q9.85-10.55 9.13-8.08 8.4-5.6 8.15-3.9L8.15-3.9Q8.05-3.35 7.95-3.3L7.95-3.3Q7.85-3.25 7.75-3.5 7.65-3.75 7.6-3.9L7.6-3.9Q7.4-5.35 7.53-6.93 7.65-8.5 8-10.15 8.35-11.8 8.8-13.48 9.25-15.15 9.75-16.85L9.75-16.85Q9.5-16.85 9.25-16.85 9-16.85 8.75-16.9L8.75-16.9Q8.35-15.85 7.93-14.83 7.5-13.8 7.1-12.9L7.1-12.9Q7.05-12.8 6.88-12.43 6.7-12.05 6.6-12.05L6.6-12.05Q6.4-12.1 6.45-12.53 6.5-12.95 6.5-13.1L6.5-13.1Q6.6-13.85 6.83-14.85 7.05-15.85 7.25-17L7.25-17Q7-17.05 6.7-17.07 6.4-17.1 6.1-17.2L6.1-17.2Q5.8-16.2 5.53-15.25 5.25-14.3 5-13.35L5-13.35Q4.6-11.6 4.4-9.63 4.2-7.65 4.4-5.55L4.4-5.55Q4.5-4.6 4.93-3.6 5.35-2.6 5.95-1.8 6.55-1 7.33-0.55 8.1-0.1 8.85-0.25ZM9.3-1.35L9.3-1.35Q9.55-1.55 9.6-1.38 9.65-1.2 9.4-1.05L9.4-1.05Q9.2-0.9 8.88-0.83 8.55-0.75 8.15-0.8 7.75-0.85 7.3-1.1 6.85-1.35 6.45-1.9L6.45-1.9Q6.1-2.35 5.88-3.2 5.65-4.05 5.55-4.88 5.45-5.7 5.5-6.3 5.55-6.9 5.75-6.9L5.75-6.9Q6-6.9 6.13-6.2 6.25-5.5 6.35-5.05L6.35-5.05Q6.55-4.25 6.9-3.4 7.25-2.55 7.65-2.05L7.65-2.05Q8.15-1.4 8.55-1.28 8.95-1.15 9.3-1.35ZM32.7-17.6L32.7-17.6Q32.3-15.6 31.35-13.6 30.4-11.6 29.55-9.85L29.55-9.85Q29.5-9.75 29.32-9.5 29.15-9.25 29.05-9.25L29.05-9.25Q28.9-9.3 28.9-9.58 28.9-9.85 28.9-9.95L28.9-9.95Q28.95-10.4 29.07-11.03 29.2-11.65 29.3-12.33 29.4-13 29.52-13.63 29.65-14.25 29.8-14.75L29.8-14.75Q30.25-16.45 30.55-17.68 30.85-18.9 31-19.9 31.15-20.9 31.17-21.8 31.2-22.7 31.05-23.75L31.05-23.75Q31-24.15 31.1-24.25L31.1-24.25Q31.2-24.3 31.35-24.15 31.5-24 31.6-23.85L31.6-23.85Q32.45-22.5 32.75-20.88 33.05-19.25 32.7-17.6ZM33.7-21.25L33.9-20.95Q34.55-20 34.55-18.45 34.55-16.9 34.25-15.28 33.95-13.65 33.5-12.15 33.05-10.65 32.85-9.75L32.85-9.75Q32.45-8 31.75-6.25 31.05-4.5 30.55-3.15L30.55-3.15Q30.5-3 30.4-2.83 30.3-2.65 30.2-2.65L30.2-2.65Q30.1-2.65 30.1-2.85 30.1-3.05 30.1-3.2L30.1-3.2Q29.95-5.95 30.7-8.58 31.45-11.2 32.3-13.9L32.3-13.9Q32.8-15.55 33.25-17.28 33.7-19 33.65-21.05L33.65-21.05Q33.65-21.25 33.7-21.25L33.7-21.25ZM29.2-21.8L29.2-21.8Q26.15-20.55 24.02-18.23 21.9-15.9 20.75-13L20.75-13Q20.25-11.7 20-10.68 19.75-9.65 19.6-8.45L19.6-8.45Q19.55-8.2 19.75-7.95 19.95-7.7 20.15-7.95L20.15-7.95Q21.05-9.05 22.45-10.75 23.85-12.45 25.25-14.35 26.65-16.25 27.77-18.2 28.9-20.15 29.2-21.8ZM25.85-4.85L25.85-4.85Q25.1-3.8 24.4-2.9 23.7-2 22.85-1.33 22-0.65 20.95-0.25 19.9 0.15 18.55 0.2L18.55 0.2Q16.3 0.3 15.12-0.95 13.95-2.2 13.5-4 13.05-5.8 13.17-7.73 13.3-9.65 13.7-10.9L13.7-10.9Q14.25-12.65 15.02-14.23 15.8-15.8 16.67-17.07 17.55-18.35 18.47-19.28 19.4-20.2 20.3-20.7L20.3-20.7Q20.35-20.7 20.52-20.8 20.7-20.9 20.7-20.75L20.7-20.75Q20.75-20.75 20.65-20.6 20.55-20.45 20.45-20.35L20.45-20.35Q17.85-17.65 16.32-14.25 14.8-10.85 14.6-7.25L14.6-7.25Q14.55-6.35 14.67-5.3 14.8-4.25 15.17-3.33 15.55-2.4 16.25-1.78 16.95-1.15 18.15-1.15L18.15-1.15Q19.1-1.15 19.9-1.48 20.7-1.8 21.4-2.33 22.1-2.85 22.67-3.48 23.25-4.1 23.7-4.65L23.7-4.65Q24.7-5.9 25.55-7.25L25.55-7.25Q25.55-8.25 25.67-9.2 25.8-10.15 26.05-11.1L26.05-11.1Q26.2-11.8 26.32-12.23 26.45-12.65 26.57-13.03 26.7-13.4 26.82-13.83 26.95-14.25 27.2-14.95L27.2-14.95Q26.4-13.55 25.62-12.33 24.85-11.1 23.97-9.98 23.1-8.85 22.17-7.78 21.25-6.7 20.15-5.6L20.15-5.6Q19.3-4.75 18.75-5.05 18.2-5.35 18.1-6.45L18.1-6.45Q18-8.15 18.27-9.75 18.55-11.35 19.25-13.1L19.25-13.1Q19.9-14.7 20.87-16.2 21.85-17.7 23.12-18.93 24.4-20.15 25.95-21.03 27.5-21.9 29.25-22.2L29.25-22.2Q29.35-22.75 29.42-23.15 29.5-23.55 29.55-23.95L29.55-23.95Q29.65-24.5 29.65-24.5L29.65-24.5Q29.75-24.55 29.87-24.4 30-24.25 30.1-24L30.1-24Q30.7-22.35 30.5-20.7 30.3-19.05 29.77-17.35 29.25-15.65 28.55-13.88 27.85-12.1 27.4-10.3L27.4-10.3Q26.8-7.75 27.07-5.03 27.35-2.3 29.2-0.1L29.2-0.1Q29.35 0.1 29.35 0.1L29.35 0.1Q29.3 0.15 29.05 0L29.05 0Q27.6-0.9 26.87-2.18 26.15-3.45 25.85-4.85ZM27.6-22.55L27.6-22.55Q27.7-22.45 27.57-22.4 27.45-22.35 27.05-22.25L27.05-22.25Q26.4-22.05 25.47-21.5 24.55-20.95 23.52-20.1 22.5-19.25 21.5-18.13 20.5-17 19.75-15.7L19.75-15.7Q19-14.35 18.47-13.05 17.95-11.75 17.62-10.68 17.3-9.6 17.15-8.83 17-8.05 17-7.75L17-7.75Q17-7 17-6.18 17-5.35 17.2-4.7 17.4-4.05 17.9-3.7 18.4-3.35 19.4-3.5L19.4-3.5Q19.45-3.5 19.65-3.58 19.85-3.65 20.05-3.73 20.25-3.8 20.42-3.85 20.6-3.9 20.65-3.9L20.65-3.9Q20.7-3.8 20.57-3.65 20.45-3.5 20.25-3.33 20.05-3.15 19.87-3 19.7-2.85 19.65-2.8L19.65-2.8Q18.4-2.05 17.55-2.35 16.7-2.65 16.22-3.48 15.75-4.3 15.57-5.43 15.4-6.55 15.45-7.45L15.45-7.45Q15.55-9.2 16-10.93 16.45-12.65 17.15-14.4L17.15-14.4Q17.7-15.75 18.8-17.18 19.9-18.6 21.27-19.8 22.65-21 24.15-21.78 25.65-22.55 27.05-22.6L27.05-22.6Q27.55-22.6 27.6-22.55ZM30.55-0.1L30.55-0.1Q30.65 0.05 30.6 0.1L30.6 0.1Q30.45 0.1 30.2 0L30.2 0Q30.05-0.1 29.4-0.6 28.75-1.1 28.45-2.2L28.45-2.2Q28.35-2.6 28.27-3.23 28.2-3.85 28.2-4.4 28.2-4.95 28.27-5.35 28.35-5.75 28.5-5.75L28.5-5.75Q28.65-5.75 28.82-5.15 29-4.55 29.05-4.4L29.05-4.4Q29.2-3.7 29.32-3.18 29.45-2.65 29.6-2.2L29.6-2.2Q29.8-1.65 30.12-0.95 30.45-0.25 30.55-0.1ZM40.6-18.45L40.6-18.45Q40.65-18.9 40.9-19.53 41.15-20.15 41.57-20.73 42-21.3 42.6-21.78 43.2-22.25 43.95-22.4L43.95-22.4Q45.55-22.7 46.6-22.2 47.65-21.7 48.2-21.05L48.2-21.05Q48.4-20.75 48.35-20.7L48.35-20.7Q48.25-20.6 48-20.75L48-20.75Q47.7-20.95 47.02-21.1 46.35-21.25 45.57-21.18 44.8-21.1 44.07-20.7 43.35-20.3 42.9-19.4L42.9-19.4Q42.5-18.55 42.35-17.65 42.2-16.75 42.17-15.98 42.15-15.2 42.2-14.65 42.25-14.1 42.25-13.9L42.25-13.9Q42.35-13.35 42.42-12.53 42.5-11.7 42.5-10.85 42.5-10 42.45-9.18 42.4-8.35 42.25-7.75L42.25-7.75Q42.2-7.6 42.12-7.25 42.05-6.9 41.95-6.9L41.95-6.9Q41.7-6.9 41.7-7.25 41.7-7.6 41.7-7.75L41.7-7.75Q41.6-9 41.35-10.28 41.1-11.55 40.87-12.9 40.65-14.25 40.55-15.63 40.45-17 40.6-18.45ZM38.85-8.55L38.85-8.55Q38.9-9.55 38.67-11.38 38.45-13.2 38.5-15.6L38.5-15.6Q38.55-16.85 38.75-18.18 38.95-19.5 39.7-20.8L39.7-20.8Q40.5-22.2 41.72-22.88 42.95-23.55 43.85-23.5L43.85-23.5Q44-23.5 44.15-23.5 44.3-23.5 44.3-23.45L44.3-23.45Q44.3-23.35 44.25-23.38 44.2-23.4 43.9-23.3L43.9-23.3Q43-23.05 42.3-22.48 41.6-21.9 41.1-21.15 40.6-20.4 40.3-19.6 40-18.8 39.95-18.15L39.95-18.15Q39.65-15.4 40-13.35L40-13.35Q40.25-11.7 40.4-9.93 40.55-8.15 40.27-6.68 40-5.2 39.22-4.23 38.45-3.25 36.85-3.15L36.85-3.15Q36.7-3.15 36.47-3.18 36.25-3.2 36.25-3.3L36.25-3.3Q36.25-3.4 36.7-3.65L36.7-3.65Q38-4.25 38.4-5.4 38.8-6.55 38.85-8.55ZM33.55-2.65L33.55-2.65Q34.25-1.55 35.77-1.03 37.3-0.5 39.4-1.1L39.4-1.1Q40.45-1.4 41.25-2.15 42.05-2.9 42.57-3.83 43.1-4.75 43.37-5.75 43.65-6.75 43.7-7.6L43.7-7.6Q43.75-9 43.62-10.35 43.5-11.7 43.32-12.98 43.15-14.25 43.02-15.45 42.9-16.65 43-17.8L43-17.8Q43.1-19.05 43.7-19.7 44.3-20.35 45.17-20.53 46.05-20.7 47-20.4 47.95-20.1 48.75-19.45L48.75-19.45Q48.95-19.35 48.9-19.2L48.9-19.2Q48.9-19.1 48.8-19.15 48.7-19.2 48.6-19.25L48.6-19.25Q46.75-19.85 45.72-19.6 44.7-19.35 44.6-17.8L44.6-17.8Q44.5-16 44.87-13.58 45.25-11.15 45.15-8.2L45.15-8.2Q45.2-7.2 44.92-5.9 44.65-4.6 44.02-3.38 43.4-2.15 42.37-1.2 41.35-0.25 39.95 0L39.95 0Q37.3 0.4 35.72-0.3 34.15-1 33.45-2.45L33.45-2.45Q33.35-2.75 33.35-2.8L33.35-2.8 33.4-2.8Q33.4-2.8 33.55-2.65ZM35.75-2.65L35.75-2.65Q36.7-2.4 38.05-2.45L38.05-2.45Q38.5-2.5 39.15-2.7 39.8-2.9 39.85-2.8L39.85-2.8Q40-2.6 39.55-2.3 39.1-2 38.4-1.78 37.7-1.55 36.95-1.48 36.2-1.4 35.7-1.6L35.7-1.6Q34.75-2 34.32-2.48 33.9-2.95 33.55-3.65L33.55-3.65 33.45-3.85Q33.35-4.05 33.4-4.1L33.4-4.1Q33.45-4.15 33.55-4.1L33.55-4.1Q33.6-4.05 33.6-4L33.6-4Q34.2-3.45 34.62-3.18 35.05-2.9 35.75-2.65ZM67.54-23.35L67.54-23.35Q67.74-22.55 67.62-21.75 67.49-20.95 67.22-20.25 66.94-19.55 66.52-19.03 66.09-18.5 65.69-18.2L65.69-18.2Q64.49-17.35 62.99-16.63 61.49-15.9 60.04-15.35L60.04-15.35Q59.94-15.3 59.69-15.23 59.44-15.15 59.34-15.3L59.34-15.3Q59.29-15.35 59.42-15.55 59.54-15.75 59.59-15.8L59.59-15.8Q60.09-16.4 60.94-17.1 61.79-17.8 62.44-18.2L62.44-18.2Q62.64-18.35 63.42-18.95 64.19-19.55 65.02-20.38 65.84-21.2 66.54-22.05 67.24-22.9 67.29-23.5L67.29-23.5Q67.29-23.6 67.32-23.63 67.34-23.65 67.34-23.7L67.34-23.7Q67.34-23.75 67.39-23.75L67.39-23.75Q67.49-23.7 67.52-23.58 67.54-23.45 67.54-23.35ZM58.14-27.4L58.14-27.4Q57.44-24.35 56.29-21.23 55.14-18.1 53.84-15.4L53.84-15.4Q53.74-15.15 53.57-14.73 53.39-14.3 53.24-14.3L53.24-14.3Q53.14-14.4 53.17-14.83 53.19-15.25 53.24-15.4L53.24-15.4Q53.39-16.15 53.64-17.3 53.89-18.45 54.22-19.75 54.54-21.05 54.87-22.3 55.19-23.55 55.49-24.5L55.49-24.5Q56.49-27.85 56.79-31.13 57.09-34.4 56.54-37.4L56.54-37.4Q56.49-37.6 56.52-37.7 56.54-37.8 56.54-37.85L56.54-37.85Q56.79-37.95 56.99-37.55L56.99-37.55Q57.59-36.75 57.94-35.48 58.29-34.2 58.42-32.77 58.54-31.35 58.47-29.93 58.39-28.5 58.14-27.4ZM55.24-38.65L55.24-38.65Q56.24-36.2 56.14-33.43 56.04-30.65 55.34-27.7 54.64-24.75 53.62-21.73 52.59-18.7 51.74-15.75L51.74-15.75Q51.19-13.9 50.87-11.83 50.54-9.75 50.54-7.68 50.54-5.6 50.94-3.65 51.34-1.7 52.29-0.05L52.29-0.05Q52.44 0.2 52.27 0.15 52.09 0.1 51.99 0L51.99 0Q50.74-1.55 50.12-3.58 49.49-5.6 49.37-7.85 49.24-10.1 49.54-12.45 49.84-14.8 50.44-16.9L50.44-16.9Q51.34-19.85 52.27-22.75 53.19-25.65 53.89-28.4 54.59-31.15 54.92-33.73 55.24-36.3 54.89-38.65L54.89-38.65Q54.89-38.75 54.87-38.88 54.84-39 54.94-39L54.94-39Q55.04-39 55.12-38.88 55.19-38.75 55.24-38.65ZM68.49-1.25L68.49-1.25Q68.89-1.15 68.79-1 68.69-0.85 68.54-0.8L68.54-0.8Q66.99-0.4 65.54-0.65 64.09-0.9 63.14-1.6L63.14-1.6Q61.89-2.5 60.97-3.95 60.04-5.4 59.19-6.7L59.19-6.7Q59.14-6.8 59.04-6.98 58.94-7.15 58.99-7.25L58.99-7.25Q59.09-7.4 59.27-7.33 59.44-7.25 59.49-7.2L59.49-7.2Q60.14-6.9 61.07-6.25 61.99-5.6 62.44-5.05L62.44-5.05Q62.84-4.6 63.54-3.98 64.24-3.35 65.07-2.8 65.89-2.25 66.79-1.8 67.69-1.35 68.49-1.25ZM70.09-2.35L70.09-2.35Q70.34-2.3 70.22-2.2 70.09-2.1 69.89-2.1L69.89-2.1Q68.29-1.8 67.04-2.43 65.79-3.05 64.72-4.08 63.64-5.1 62.62-6.3 61.59-7.5 60.44-8.45L60.44-8.45Q58.99-9.6 56.87-10.1 54.74-10.6 52.29-9.65L52.29-9.65Q52.04-9.55 52.09-9.7 52.14-9.85 52.24-9.95L52.24-9.95Q52.69-10.25 53.19-10.53 53.69-10.8 54.14-10.95L54.14-10.95Q54.74-13.6 55.59-16.23 56.44-18.85 57.29-21.6L57.29-21.6Q58.09-24.15 58.74-26.95 59.39-29.75 59.29-32.9L59.29-32.9Q59.29-33.2 59.39-33.2L59.39-33.2Q59.49-33.2 59.52-33.05 59.54-32.9 59.64-32.8L59.64-32.8Q60.14-31.75 60.14-30 60.14-28.25 59.84-26.23 59.54-24.2 59.04-22.1 58.54-20 58.04-18.3L58.04-18.3Q59.04-19.35 60.27-20.08 61.49-20.8 62.72-21.48 63.94-22.15 64.99-23 66.04-23.85 66.69-25.15L66.69-25.15Q66.69-25.2 66.72-25.25 66.74-25.3 66.79-25.2L66.79-25.2Q66.79-25.15 66.82-25.05 66.84-24.95 66.84-24.85L66.84-24.85Q66.74-23.25 65.89-22.18 65.04-21.1 63.84-20.25 62.64-19.4 61.24-18.65 59.84-17.9 58.64-17L58.64-17Q57.19-15.9 56.69-14.35 56.19-12.8 55.84-11.3L55.84-11.3Q56.09-11.65 56.37-12.08 56.64-12.5 56.89-12.88 57.14-13.25 57.34-13.45 57.54-13.65 57.64-13.55L57.64-13.55Q57.69-13.5 57.62-13.23 57.54-12.95 57.44-12.6 57.34-12.25 57.24-11.9 57.14-11.55 57.09-11.35L57.09-11.35Q57.34-11.3 57.52-11.3 57.69-11.3 57.84-11.25L57.84-11.25Q58.99-12.9 60.54-14.03 62.09-15.15 63.79-16.15L63.79-16.15Q64.94-16.85 66.02-17.65 67.09-18.45 67.94-19.75L67.94-19.75Q67.99-19.9 68.09-19.8L68.09-19.8Q68.14-19.75 68.12-19.68 68.09-19.6 68.14-19.45L68.14-19.45Q68.19-18.4 67.54-17.45 66.89-16.5 65.94-15.7 64.99-14.9 63.99-14.25 62.99-13.6 62.44-13.15L62.44-13.15Q61.64-12.55 60.69-12.03 59.74-11.5 58.89-11.05L58.89-11.05Q60.39-10.55 61.69-9.45L61.69-9.45Q62.84-8.55 63.84-7.43 64.84-6.3 65.84-5.25 66.84-4.2 67.87-3.4 68.89-2.6 70.09-2.35ZM54.39-7.1L54.39-7.1Q54.29-6.8 54.12-6.25 53.94-5.7 53.84-5.2L53.84-5.2Q53.74-4.95 53.72-4.7 53.69-4.45 53.59-4.5L53.59-4.5Q53.44-4.55 53.37-4.9 53.29-5.25 53.29-5.5L53.29-5.5Q53.29-5.85 53.29-6.3 53.29-6.75 53.37-7.13 53.44-7.5 53.67-7.75 53.89-8 54.34-8L54.34-8Q54.99-7.95 55.77-7.53 56.54-7.1 57.34-6.43 58.14-5.75 58.94-4.93 59.74-4.1 60.54-3.25L60.54-3.25Q61.39-2.3 62.42-1.33 63.44-0.35 64.89 0.05L64.89 0.05Q65.09 0.15 65.09 0.23 65.09 0.3 64.84 0.3L64.84 0.3Q63.84 0.3 62.82-0.13 61.79-0.55 60.82-1.18 59.84-1.8 59.02-2.5 58.19-3.2 57.59-3.75L57.59-3.75Q56.74-4.55 55.92-5.45 55.09-6.35 54.39-7.1ZM53.79-0.05L53.79-0.05Q53.89 0.1 53.77 0.15 53.64 0.2 53.39 0L53.39 0Q52.79-0.55 52.29-1.33 51.79-2.1 51.54-3.7L51.54-3.7Q51.34-4.65 51.27-5.73 51.19-6.8 51.44-7.65 51.69-8.5 52.39-9.08 53.09-9.65 54.44-9.65L54.44-9.65Q54.79-9.65 55.24-9.55 55.69-9.45 56.07-9.33 56.44-9.2 56.67-9.03 56.89-8.85 56.74-8.7L56.74-8.7Q56.69-8.55 56.22-8.6 55.74-8.65 55.64-8.65L55.64-8.65Q55.04-8.75 54.47-8.78 53.89-8.8 53.44-8.65 52.99-8.5 52.72-8.08 52.44-7.65 52.44-6.85L52.44-6.85Q52.44-5.15 52.74-3.65L52.74-3.65Q52.94-2.65 53.17-1.78 53.39-0.9 53.79-0.05Z" fill="#000000" data-fill-palette-color="primary"></path><path d="M94.259-12.65L94.259-12.65Q93.559-9.65 93.309-6.4 93.059-3.15 93.709-0.1L93.709-0.1Q93.759 0 93.679 0.13 93.609 0.25 93.509 0L93.509 0Q92.659-1.65 92.329-3.35 92.009-5.05 92.009-6.73 92.009-8.4 92.259-10.1 92.509-11.8 92.909-13.45L92.909-13.45Q92.959-13.65 93.109-14.28 93.259-14.9 93.329-15.53 93.409-16.15 93.309-16.5 93.209-16.85 92.709-16.5L92.709-16.5Q91.559-15.65 90.579-14.38 89.609-13.1 89.009-11.9L89.009-11.9Q88.959-11.8 88.779-11.33 88.609-10.85 88.429-10.3 88.259-9.75 88.109-9.22 87.959-8.7 87.909-8.55L87.909-8.55Q87.509-7 86.909-5.6 86.309-4.2 85.909-3L85.909-3Q85.759-2.5 85.709-2.55L85.709-2.55Q85.459-2.55 85.459-3L85.459-3Q85.209-5.45 85.879-7.73 86.559-10 87.359-12.4L87.359-12.4Q87.859-13.95 88.279-15.48 88.709-17 88.659-18.85L88.659-18.85Q88.609-20.15 89.629-21.4 90.659-22.65 92.709-23.5L92.709-23.5Q93.909-24 94.959-23.95 96.009-23.9 96.909-23.5 97.809-23.1 98.509-22.35 99.209-21.6 99.659-20.7L99.659-20.7Q99.959-21.25 100.559-21.88 101.159-22.5 101.979-22.95 102.809-23.4 103.829-23.63 104.859-23.85 106.109-23.65L106.109-23.65Q107.009-23.5 107.679-23.05 108.359-22.6 108.879-22.03 109.409-21.45 109.709-20.85 110.009-20.25 110.159-19.85L110.159-19.85Q110.709-18.2 110.729-16.15 110.759-14.1 110.309-12.45L110.309-12.45Q109.559-9.75 108.529-7.65 107.509-5.55 107.159-3.9L107.159-3.9Q107.009-3.35 106.959-3.35L106.959-3.35Q106.759-3.35 106.729-3.55 106.709-3.75 106.659-3.95L106.659-3.95Q106.559-5 106.929-6.63 107.309-8.25 107.809-10.13 108.309-12 108.709-13.95 109.109-15.9 109.059-17.57 109.009-19.25 108.309-20.5 107.609-21.75 105.909-22.2L105.909-22.2Q104.559-22.55 103.529-22.23 102.509-21.9 101.809-21.5L101.809-21.5Q100.759-20.8 100.459-20.03 100.159-19.25 100.159-18.55L100.159-18.55Q101.009-20.1 102.409-21.03 103.809-21.95 105.709-21.35L105.709-21.35Q106.959-20.95 107.479-19.85 108.009-18.75 108.059-17.4 108.109-16.05 107.779-14.7 107.459-13.35 107.009-12.45L107.009-12.45Q106.959-12.35 106.759-11.98 106.559-11.6 106.309-11.65L106.309-11.65Q106.259-11.65 106.279-12.05 106.309-12.45 106.309-12.65L106.309-12.65Q106.459-13.25 106.509-14.05 106.559-14.85 106.529-15.7 106.509-16.55 106.409-17.35 106.309-18.15 106.109-18.7L106.109-18.7Q105.859-19.4 105.329-19.63 104.809-19.85 104.209-19.75 103.609-19.65 103.029-19.35 102.459-19.05 102.059-18.7L102.059-18.7Q100.959-17.75 100.709-16.98 100.459-16.2 100.309-15.2L100.309-15.2Q100.909-16.2 101.779-17.07 102.659-17.95 103.509-18.5L103.509-18.5Q103.959-18.7 104.279-18.65 104.609-18.6 104.829-18.38 105.059-18.15 105.159-17.82 105.259-17.5 105.309-17.25L105.309-17.25Q105.459-15.6 105.179-14.35 104.909-13.1 104.529-11.78 104.159-10.45 103.929-8.83 103.709-7.2 104.009-4.8L104.009-4.8Q104.259-3.05 105.059-1.65 105.859-0.25 107.059 0.1L107.059 0.1Q107.409 0.2 107.229 0.25 107.059 0.3 106.959 0.3L106.959 0.3Q106.059 0.2 105.259-0.4 104.459-1 103.829-1.9 103.209-2.8 102.809-3.9 102.409-5 102.359-6.1L102.359-6.1Q102.209-8.35 102.629-10.38 103.059-12.4 103.459-13.85L103.459-13.85Q103.559-14.25 103.679-14.88 103.809-15.5 103.779-15.95 103.759-16.4 103.459-16.48 103.159-16.55 102.459-15.9L102.459-15.9Q101.459-15 100.709-13.95 99.959-12.9 99.609-11.6L99.609-11.6Q98.459-7.45 96.309-3.65L96.309-3.65Q96.209-3.45 96.059-3.28 95.909-3.1 95.859-3.15L95.859-3.15Q95.759-3.15 95.809-3.4 95.859-3.65 95.909-3.9L95.909-3.9Q96.209-5.65 96.659-7.3 97.109-8.95 97.529-10.68 97.959-12.4 98.279-14.23 98.609-16.05 98.659-18.15L98.659-18.15Q98.559-18.85 98.379-19.6 98.209-20.35 97.359-21.35L97.359-21.35Q96.359-22.45 95.009-22.5 93.659-22.55 92.809-22.25L92.809-22.25Q92.259-22.1 91.629-21.7 91.009-21.3 90.479-20.75 89.959-20.2 89.629-19.48 89.309-18.75 89.459-17.9L89.459-17.9Q90.009-18.9 90.729-19.85 91.459-20.8 92.609-21.3L92.609-21.3Q92.959-21.45 93.509-21.58 94.059-21.7 94.659-21.73 95.259-21.75 95.859-21.55 96.459-21.35 96.909-20.8L96.909-20.8Q97.709-19.8 97.779-19 97.859-18.2 97.809-17.4L97.809-17.4Q97.709-15.95 97.359-14.68 97.009-13.4 96.459-12.25L96.459-12.25Q96.409-12.1 96.209-11.78 96.009-11.45 95.909-11.45L95.909-11.45Q95.809-11.5 95.779-11.88 95.759-12.25 95.859-12.4L95.859-12.4Q95.909-12.95 96.009-14.03 96.109-15.1 96.129-16.28 96.159-17.45 96.009-18.43 95.859-19.4 95.359-19.8L95.359-19.8Q94.909-20.15 94.009-20 93.109-19.85 92.409-19.3L92.409-19.3Q91.709-18.75 91.229-18.25 90.759-17.75 90.459-17.23 90.159-16.7 89.929-16.07 89.709-15.45 89.559-14.6L89.559-14.6Q90.159-15.75 90.959-16.75 91.759-17.75 92.909-18.45L92.909-18.45Q93.709-19 94.159-18.9 94.609-18.8 94.779-18.35 94.959-17.9 94.929-17.2 94.909-16.5 94.859-15.9L94.859-15.9Q94.759-15.1 94.609-14.25 94.459-13.4 94.259-12.65ZM108.559 0.1L108.559 0.1Q108.559 0.1 108.309 0.1L108.309 0.1Q108.209 0.1 108.059 0.05L108.059 0.05Q107.359-0.1 106.559-0.58 105.759-1.05 105.209-2.35L105.209-2.35Q105.009-2.85 104.909-3.65 104.809-4.45 104.809-5.2 104.809-5.95 104.909-6.5 105.009-7.05 105.209-7L105.209-7Q105.259-7 105.329-6.78 105.409-6.55 105.459-6.25 105.509-5.95 105.559-5.65 105.609-5.35 105.609-5.2L105.609-5.2Q105.709-4.5 105.859-3.83 106.009-3.15 106.259-2.6L106.259-2.6Q106.509-1.85 107.179-1.03 107.859-0.2 108.409-0.1L108.409-0.1Q108.659 0 108.559 0.1ZM95.109 0L95.109 0Q95.209 0.35 95.109 0.35L95.109 0.35Q94.859 0.35 94.709 0.1L94.709 0.1Q94.459-0.2 94.209-0.78 93.959-1.35 94.009-2.75L94.009-2.75Q94.009-3.3 94.109-4.08 94.209-4.85 94.329-5.53 94.459-6.2 94.609-6.65 94.759-7.1 94.959-7.05L94.959-7.05Q95.009-7.05 95.029-6.83 95.059-6.6 95.079-6.3 95.109-6 95.109-5.73 95.109-5.45 95.109-5.35L95.109-5.35Q95.109-4.55 95.059-3.93 95.009-3.3 95.009-2.6L95.009-2.6Q95.009-1.65 95.009-1 95.009-0.35 95.109 0ZM87.709-16.6L87.709-16.6Q87.159-14.7 86.229-12.85 85.309-11 84.709-9.3L84.709-9.3Q84.659-9.2 84.529-8.93 84.409-8.65 84.209-8.7L84.209-8.7Q84.109-8.75 84.079-9.03 84.059-9.3 84.059-9.45L84.059-9.45Q84.059-10.25 84.329-11.58 84.609-12.9 84.909-13.75L84.909-13.75Q85.009-14.05 85.279-15.28 85.559-16.5 85.779-17.95 86.009-19.4 86.079-20.75 86.159-22.1 85.809-22.7L85.809-22.7Q85.609-23.05 85.809-23.05L85.809-23.05Q85.959-23.05 86.209-22.8L86.209-22.8Q86.809-22.25 87.179-21.45 87.559-20.65 87.729-19.78 87.909-18.9 87.879-18.05 87.859-17.2 87.709-16.6ZM84.409 0.05L84.409 0.05Q82.859-1 82.029-2.25 81.209-3.5 80.909-4.85 80.609-6.2 80.679-7.6 80.759-9 81.059-10.35L81.059-10.35Q81.459-12.15 82.079-13.93 82.709-15.7 83.279-17.38 83.859-19.05 84.179-20.65 84.509-22.25 84.259-23.7L84.259-23.7Q84.259-23.9 84.309-23.9L84.309-23.9Q84.409-23.9 84.559-23.65L84.559-23.65Q85.459-22.05 85.409-20.35 85.359-18.65 84.859-16.88 84.359-15.1 83.629-13.28 82.909-11.45 82.509-9.6L82.509-9.6Q82.259-8.45 82.179-7.18 82.109-5.9 82.359-4.65 82.609-3.4 83.179-2.2 83.759-1 84.759-0.05L84.759-0.05Q84.959 0.05 84.859 0.15L84.859 0.15Q84.759 0.25 84.629 0.18 84.509 0.1 84.409 0.05ZM86.309 0.25L86.309 0.25Q86.159 0.35 85.909 0.1L85.909 0.1Q85.359-0.3 84.829-0.75 84.309-1.2 83.809-2.2L83.809-2.2Q83.609-2.55 83.509-3.1 83.409-3.65 83.409-4.17 83.409-4.7 83.479-5.05 83.559-5.4 83.709-5.4L83.709-5.4Q83.909-5.35 84.029-4.85 84.159-4.35 84.259-4.2L84.259-4.2Q84.459-3.65 84.609-3.18 84.759-2.7 84.959-2.25L84.959-2.25Q85.259-1.55 85.559-1.05 85.859-0.55 86.259-0.05L86.259-0.05Q86.309 0 86.359 0.1 86.409 0.2 86.309 0.25ZM126.209-20.4L126.209-20.4Q126.609-19.9 126.829-19.15 127.059-18.4 127.009-17.53 126.959-16.65 126.609-15.7 126.259-14.75 125.509-13.85L125.509-13.85Q124.059-12.15 122.329-11.23 120.609-10.3 119.209-10.3L119.209-10.3Q118.359-10.3 119.209-10.6L119.209-10.6Q119.659-10.75 120.279-11.08 120.909-11.4 121.609-11.88 122.309-12.35 123.029-13 123.759-13.65 124.359-14.5L124.359-14.5Q125.359-15.9 125.529-17.23 125.709-18.55 125.009-19.25L125.009-19.25Q124.409-19.85 123.609-19.93 122.809-20 121.209-19.05L121.209-19.05Q119.759-18.2 118.609-16.95 117.459-15.7 116.459-14.3L116.459-14.3Q115.909-13.6 115.729-13.6 115.559-13.6 115.859-14.5L115.859-14.5Q116.459-16.25 117.529-17.75 118.609-19.25 120.109-20.3L120.109-20.3Q121.209-21.05 122.129-21.35 123.059-21.65 123.829-21.6 124.609-21.55 125.209-21.23 125.809-20.9 126.209-20.4ZM128.909-16.9L128.909-16.9Q128.709-15.7 128.279-14.88 127.849-14.05 127.329-13.48 126.809-12.9 126.279-12.55 125.759-12.2 125.359-11.9L125.359-11.9Q125.159-11.75 125.059-11.85 124.959-11.95 125.209-12.2L125.209-12.2Q126.109-12.95 127.029-14.23 127.959-15.5 128.009-17.05L128.009-17.05Q128.009-19.7 126.709-21.1L126.709-21.1Q125.409-22.5 123.459-22.33 121.509-22.15 119.409-20.8L119.409-20.8Q118.059-19.95 117.029-18.82 116.009-17.7 115.259-16.43 114.509-15.15 114.029-13.8 113.559-12.45 113.359-11.1L113.359-11.1Q113.159-9.8 112.979-8.3 112.809-6.8 112.979-5.35 113.159-3.9 113.909-2.58 114.659-1.25 116.259-0.3L116.259-0.3Q116.509-0.15 116.779-0.1 117.059-0.05 117.059 0L117.059 0Q117.059 0.1 116.809 0.13 116.559 0.15 116.259 0.05L116.259 0.05Q115.009-0.2 114.129-0.98 113.259-1.75 112.709-2.75 112.159-3.75 111.859-4.85 111.559-5.95 111.509-6.85L111.509-6.85Q111.209-10.8 112.609-14.65L112.609-14.65Q112.909-15.45 113.379-16.45 113.859-17.45 114.559-18.48 115.259-19.5 116.209-20.48 117.159-21.45 118.359-22.2L118.359-22.2Q119.509-22.9 120.759-23.25 122.009-23.6 123.259-23.58 124.509-23.55 125.609-23.13 126.709-22.7 127.559-21.85L127.559-21.85Q128.309-21.05 128.729-19.8 129.159-18.55 128.909-16.9ZM124.359-18.7L124.359-18.7Q124.959-18 124.509-16.53 124.059-15.05 122.409-13.55L122.409-13.55Q121.509-12.7 120.659-12.18 119.809-11.65 118.509-11.25L118.509-11.25Q117.959-9.35 117.809-7.5 117.659-5.65 117.909-4.5L117.909-4.5Q117.959-4.05 118.229-3.63 118.509-3.2 119.029-2.98 119.559-2.75 120.409-2.8 121.259-2.85 122.509-3.35L122.509-3.35Q122.859-3.5 122.929-3.43 123.009-3.35 122.609-3.1L122.609-3.1Q121.709-2.4 120.709-2.13 119.709-1.85 118.829-1.95 117.959-2.05 117.329-2.55 116.709-3.05 116.509-3.9L116.509-3.9Q116.109-5.65 116.159-7.55 116.209-9.45 116.729-11.3 117.259-13.15 118.229-14.78 119.209-16.4 120.659-17.55L120.659-17.55Q123.359-19.7 124.359-18.7ZM123.859-2.75L123.859-2.75Q123.509-2.25 122.979-1.78 122.459-1.3 121.779-0.93 121.109-0.55 120.379-0.3 119.659-0.05 118.909-0.05L118.909-0.05Q117.609-0.05 116.479-0.63 115.359-1.2 114.759-2.95L114.759-2.95Q114.659-3.15 114.659-3.33 114.659-3.5 114.759-3.5L114.759-3.5Q114.959-3.6 115.159-3.38 115.359-3.15 115.559-2.9L115.559-2.9Q116.109-2.25 116.979-1.75 117.859-1.25 118.659-1.25L118.659-1.25Q120.159-1.25 121.259-1.7 122.359-2.15 123.359-2.9L123.359-2.9Q123.609-3.05 123.929-3.2 124.259-3.35 123.859-2.75ZM123.159-17.35L123.159-17.35Q122.959-17.75 121.709-16.7L121.709-16.7Q120.559-15.8 119.879-14.63 119.209-13.45 118.709-12.05L118.709-12.05Q119.659-12.5 120.459-13.08 121.259-13.65 121.959-14.2L121.959-14.2Q122.709-14.85 123.059-15.9 123.409-16.95 123.159-17.35ZM145.699-17.95L145.699-17.95Q145.799-16.4 145.499-14.98 145.199-13.55 144.749-12.35L144.749-12.35Q144.649-12.1 144.429-11.8 144.199-11.5 143.999-11.6L143.999-11.6Q143.899-11.6 143.949-11.95 143.999-12.3 143.999-12.45L143.999-12.45Q144.049-13 144.079-13.83 144.099-14.65 144.099-15.5 144.099-16.35 144.029-17.13 143.949-17.9 143.799-18.45L143.799-18.45Q143.349-20.05 142.379-20.23 141.399-20.4 140.399-19.7 139.399-19 138.499-17.75 137.599-16.5 137.299-15.3L137.299-15.3Q137.599-15.75 138.079-16.38 138.549-17 139.149-17.57 139.749-18.15 140.429-18.53 141.099-18.9 141.699-18.85L141.699-18.85Q142.349-18.8 142.629-18.15 142.899-17.5 142.949-16.55 142.999-15.6 142.849-14.5 142.699-13.4 142.499-12.45L142.499-12.45Q142.149-10.9 141.899-9.25 141.649-7.6 141.729-6.03 141.799-4.45 142.279-2.98 142.749-1.5 143.899-0.25L143.899-0.25Q143.999-0.1 144.049 0 144.099 0.1 143.799-0.05L143.799-0.05Q142.499-0.8 141.729-1.8 140.949-2.8 140.549-3.95 140.149-5.1 140.079-6.35 139.999-7.6 140.099-8.85L140.099-8.85Q140.299-10.65 140.699-12 141.099-13.35 141.299-15.05L141.299-15.05Q141.399-16.1 141.149-16.43 140.899-16.75 140.549-16.8L140.549-16.8Q140.049-16.85 139.429-16.28 138.799-15.7 138.129-14.65 137.449-13.6 136.829-12.2 136.199-10.8 135.749-9.25L135.749-9.25Q135.349-7.7 134.779-6.03 134.199-4.35 133.699-3.15L133.699-3.15Q133.499-2.7 133.399-2.7L133.399-2.7Q133.299-2.7 133.229-2.9 133.149-3.1 133.149-3.2L133.149-3.2Q132.949-5.7 133.599-8.15 134.249-10.6 135.099-13.1L135.099-13.1Q135.599-14.65 135.999-15.85 136.399-17.05 136.399-18.9L136.399-18.9Q136.399-19.7 136.799-20.58 137.199-21.45 137.979-22.18 138.749-22.9 139.899-23.35 141.049-23.8 142.499-23.75L142.499-23.75Q144.899-23.7 146.199-22.63 147.499-21.55 148.029-19.9 148.549-18.25 148.479-16.32 148.399-14.4 148.049-12.6L148.049-12.6Q147.749-11.25 147.349-10.15 146.949-9.05 146.499-8.1 146.049-7.15 145.649-6.3 145.249-5.45 144.999-4.6L144.999-4.6Q144.949-4.45 144.899-4.28 144.849-4.1 144.749-4.1L144.749-4.1Q144.649-4.1 144.599-4.3 144.549-4.5 144.549-4.75L144.549-4.75Q144.449-6.45 144.899-8.03 145.349-9.6 145.849-11.28 146.349-12.95 146.599-14.8 146.849-16.65 146.399-18.9L146.399-18.9Q145.949-21.3 144.199-22.1 142.449-22.9 140.199-22L140.199-22Q139.899-21.85 139.399-21.55 138.899-21.25 138.429-20.75 137.949-20.25 137.549-19.58 137.149-18.9 137.049-18.1L137.049-18.1Q137.649-19 138.449-19.8 139.249-20.6 140.149-21.08 141.049-21.55 141.979-21.65 142.899-21.75 143.799-21.3L143.799-21.3Q144.849-20.75 145.249-19.78 145.649-18.8 145.699-17.95ZM135.499-16.6L135.499-16.6Q134.949-14.7 134.029-12.85 133.099-11 132.499-9.3L132.499-9.3Q132.449-9.2 132.329-8.93 132.199-8.65 131.999-8.7L131.999-8.7Q131.899-8.75 131.879-9.03 131.849-9.3 131.849-9.45L131.849-9.45Q131.849-10.25 132.129-11.58 132.399-12.9 132.699-13.75L132.699-13.75Q132.799-14.05 133.079-15.28 133.349-16.5 133.579-17.95 133.799-19.4 133.879-20.75 133.949-22.1 133.599-22.7L133.599-22.7Q133.399-23.05 133.599-23.05L133.599-23.05Q133.749-23.05 133.999-22.8L133.999-22.8Q134.599-22.25 134.979-21.45 135.349-20.65 135.529-19.78 135.699-18.9 135.679-18.05 135.649-17.2 135.499-16.6ZM145.699-0.05L145.699-0.05Q145.599 0 145.299-0.1L145.299-0.1Q145.149-0.15 145.049-0.2L145.049-0.2Q144.349-0.65 143.849-1.23 143.349-1.8 142.849-3.2L142.849-3.2Q142.699-3.7 142.629-4.48 142.549-5.25 142.599-6 142.649-6.75 142.779-7.28 142.899-7.8 143.149-7.8L143.149-7.8Q143.249-7.8 143.379-7.23 143.499-6.65 143.629-5.9 143.749-5.15 143.899-4.4 144.049-3.65 144.149-3.3L144.149-3.3Q144.399-2.55 144.649-1.8 144.899-1.05 145.449-0.5L145.449-0.5Q145.549-0.4 145.649-0.23 145.749-0.05 145.699-0.05ZM132.199 0.05L132.199 0.05Q130.649-1 129.829-2.25 128.999-3.5 128.699-4.85 128.399-6.2 128.479-7.6 128.549-9 128.849-10.35L128.849-10.35Q129.249-12.15 129.879-13.93 130.499-15.7 131.079-17.38 131.649-19.05 131.979-20.65 132.299-22.25 132.049-23.7L132.049-23.7Q132.049-23.9 132.099-23.9L132.099-23.9Q132.199-23.9 132.349-23.65L132.349-23.65Q133.249-22.05 133.199-20.35 133.149-18.65 132.649-16.88 132.149-15.1 131.429-13.28 130.699-11.45 130.299-9.6L130.299-9.6Q130.049-8.45 129.979-7.18 129.899-5.9 130.149-4.65 130.399-3.4 130.979-2.2 131.549-1 132.549-0.05L132.549-0.05Q132.749 0.05 132.649 0.15L132.649 0.15Q132.549 0.25 132.429 0.18 132.299 0.1 132.199 0.05ZM134.099 0.25L134.099 0.25Q133.949 0.35 133.699 0.1L133.699 0.1Q133.149-0.3 132.629-0.75 132.099-1.2 131.599-2.2L131.599-2.2Q131.399-2.55 131.299-3.1 131.199-3.65 131.199-4.17 131.199-4.7 131.279-5.05 131.349-5.4 131.499-5.4L131.499-5.4Q131.699-5.35 131.829-4.85 131.949-4.35 132.049-4.2L132.049-4.2Q132.249-3.65 132.399-3.18 132.549-2.7 132.749-2.25L132.749-2.25Q133.049-1.55 133.349-1.05 133.649-0.55 134.049-0.05L134.049-0.05Q134.099 0 134.149 0.1 134.199 0.2 134.099 0.25ZM163.649-22.2L163.649-22.2Q163.699-22.15 163.699-21.98 163.699-21.8 163.649-21.7L163.649-21.7Q163.199-20.25 162.099-19.65 160.999-19.05 160.149-19.05L160.149-19.05Q159.099-19.05 157.999-19.23 156.899-19.4 155.899-20.15L155.899-20.15Q155.799-20.25 155.649-20.35 155.499-20.45 155.499-20.55L155.499-20.55Q155.499-20.7 155.649-20.78 155.799-20.85 155.899-20.9L155.899-20.9Q156.349-21 157.069-21.08 157.799-21.15 158.499-21.05L158.499-21.05Q158.999-20.95 159.699-20.95 160.399-20.95 161.119-21.05 161.849-21.15 162.449-21.38 163.049-21.6 163.349-22.05L163.349-22.05Q163.499-22.25 163.649-22.2ZM163.999-23.75L163.999-23.75 163.849-23.5Q162.999-22.4 162.049-22.08 161.099-21.75 160.049-21.8 158.999-21.85 157.919-22.08 156.849-22.3 155.799-22.35L155.799-22.35Q154.399-22.4 152.999-21.5 151.599-20.6 150.599-18.35L150.599-18.35Q150.449-18.05 150.399-18.23 150.349-18.4 150.399-18.55L150.399-18.55Q150.799-20.05 151.349-21.05 151.899-22.05 152.529-22.68 153.149-23.3 153.849-23.6 154.549-23.9 155.299-24L155.299-24Q156.149-26.85 156.619-29.58 157.099-32.3 156.699-34.75L156.699-34.75Q156.699-34.95 156.699-34.95L156.699-34.95Q156.799-35 156.899-34.9 156.999-34.8 156.999-34.75L156.999-34.75Q158.099-32.35 157.899-29.63 157.699-26.9 156.899-23.9L156.899-23.9Q157.149-23.85 157.299-23.85 157.449-23.85 157.649-23.85L157.649-23.85Q157.899-25.15 158.119-26.63 158.349-28.1 158.479-29.45 158.599-30.8 158.549-31.9 158.499-33 158.199-33.55L158.199-33.55Q158.049-34 158.199-34L158.199-34Q158.299-34 158.349-33.9 158.399-33.8 158.499-33.7L158.499-33.7Q159.199-33 159.599-31.8 159.999-30.6 160.149-29.25 160.299-27.9 160.249-26.58 160.199-25.25 159.949-24.25L159.949-24.25 159.749-23.45Q159.899-23.35 160.049-23.35 160.199-23.35 160.349-23.3L160.349-23.3Q160.649-24.8 160.869-26.3 161.099-27.8 161.049-29.45L161.049-29.45Q161.049-29.8 161.099-29.8L161.099-29.8Q161.199-29.8 161.249-29.65 161.299-29.5 161.349-29.4L161.349-29.4Q161.949-28.3 161.919-26.65 161.899-25 161.649-23.15L161.649-23.15Q162.749-23.15 163.749-23.75L163.749-23.75Q163.999-23.9 163.999-23.75ZM153.649-20.35L153.649-20.35Q153.649-20.1 153.369-19.85 153.099-19.6 152.949-19.5L152.949-19.5Q152.699-19.3 152.369-19.03 152.049-18.75 151.799-18.45L151.799-18.45Q151.549-18.05 151.319-17.75 151.099-17.45 150.949-16.9L150.949-16.9Q150.899-16.8 150.819-16.73 150.749-16.65 150.699-16.7L150.699-16.7Q150.549-16.85 150.699-17.35L150.699-17.35Q150.899-18.1 151.099-18.57 151.299-19.05 151.849-19.6L151.849-19.6Q152.049-19.8 152.349-20 152.649-20.2 152.949-20.35 153.249-20.5 153.449-20.5 153.649-20.5 153.649-20.35ZM157.549-0.25L157.549-0.25Q157.799-0.35 157.749-0.2 157.699-0.05 157.599 0L157.599 0Q156.699 0.3 155.699-0.1 154.699-0.5 153.849-1.35 152.999-2.2 152.399-3.33 151.799-4.45 151.649-5.55L151.649-5.55Q151.399-7.9 151.599-10.1 151.799-12.3 152.349-14.45L152.349-14.45 153.199-17.6Q152.899-17.6 152.599-17.75L152.599-17.75Q152.249-17.85 152.249-18L152.249-18Q152.249-18.1 152.599-18.3L152.599-18.3Q153.999-19 155.419-18.9 156.849-18.8 158.299-18.55L158.299-18.55Q159.199-18.4 160.119-18.32 161.049-18.25 162.149-18.7L162.149-18.7Q162.249-18.8 162.349-18.75L162.349-18.75Q162.449-18.65 162.299-18.4L162.299-18.4Q161.999-17.75 161.449-17.45 160.899-17.15 160.299-17L160.299-17Q159.899-15.7 159.599-14.68 159.299-13.65 159.099-12.95L159.099-12.95Q158.549-10.55 157.819-8.08 157.099-5.6 156.849-3.9L156.849-3.9Q156.749-3.35 156.649-3.3L156.649-3.3Q156.549-3.25 156.449-3.5 156.349-3.75 156.299-3.9L156.299-3.9Q156.099-5.35 156.229-6.93 156.349-8.5 156.699-10.15 157.049-11.8 157.499-13.48 157.949-15.15 158.449-16.85L158.449-16.85Q158.199-16.85 157.949-16.85 157.699-16.85 157.449-16.9L157.449-16.9Q157.049-15.85 156.619-14.83 156.199-13.8 155.799-12.9L155.799-12.9Q155.749-12.8 155.569-12.43 155.399-12.05 155.299-12.05L155.299-12.05Q155.099-12.1 155.149-12.53 155.199-12.95 155.199-13.1L155.199-13.1Q155.299-13.85 155.529-14.85 155.749-15.85 155.949-17L155.949-17Q155.699-17.05 155.399-17.07 155.099-17.1 154.799-17.2L154.799-17.2Q154.499-16.2 154.229-15.25 153.949-14.3 153.699-13.35L153.699-13.35Q153.299-11.6 153.099-9.63 152.899-7.65 153.099-5.55L153.099-5.55Q153.199-4.6 153.619-3.6 154.049-2.6 154.649-1.8 155.249-1 156.029-0.55 156.799-0.1 157.549-0.25ZM157.999-1.35L157.999-1.35Q158.249-1.55 158.299-1.38 158.349-1.2 158.099-1.05L158.099-1.05Q157.899-0.9 157.569-0.83 157.249-0.75 156.849-0.8 156.449-0.85 155.999-1.1 155.549-1.35 155.149-1.9L155.149-1.9Q154.799-2.35 154.569-3.2 154.349-4.05 154.249-4.88 154.149-5.7 154.199-6.3 154.249-6.9 154.449-6.9L154.449-6.9Q154.699-6.9 154.819-6.2 154.949-5.5 155.049-5.05L155.049-5.05Q155.249-4.25 155.599-3.4 155.949-2.55 156.349-2.05L156.349-2.05Q156.849-1.4 157.249-1.28 157.649-1.15 157.999-1.35ZM178.049-13.85L178.049-13.85Q178.199-15.2 178.099-16.7 177.999-18.2 177.469-19.48 176.949-20.75 175.869-21.6 174.799-22.45 173.049-22.45L173.049-22.45Q170.699-22.45 168.949-21.18 167.199-19.9 165.949-18.03 164.699-16.15 163.999-14.03 163.299-11.9 163.099-10.15L163.099-10.15Q162.799-7.75 163.019-6 163.249-4.25 163.849-3.13 164.449-2 165.369-1.45 166.299-0.9 167.399-0.9L167.399-0.9Q168.949-0.85 170.669-1.78 172.399-2.7 173.899-4.38 175.399-6.05 176.519-8.47 177.649-10.9 178.049-13.85ZM161.949-10.4L161.949-10.4Q162.149-12.4 162.949-14.8 163.749-17.2 165.169-19.25 166.599-21.3 168.599-22.68 170.599-24.05 173.249-24.05L173.249-24.05Q175.249-24.05 176.549-23.1 177.849-22.15 178.549-20.68 179.249-19.2 179.449-17.48 179.649-15.75 179.449-14.2L179.449-14.2Q178.999-10.6 177.699-7.95 176.399-5.3 174.649-3.53 172.899-1.75 170.949-0.88 168.999 0 167.199 0L167.199 0Q165.849 0 164.769-0.6 163.699-1.2 162.969-2.48 162.249-3.75 161.969-5.73 161.699-7.7 161.949-10.4ZM167.549-3.35L167.549-3.35Q167.299-3.35 167.049-3.53 166.799-3.7 166.649-3.95 166.499-4.2 166.449-4.45 166.399-4.7 166.649-4.8L166.649-4.8Q166.799-4.85 167.049-4.45 167.299-4.05 167.599-4.05L167.599-4.05Q168.099-4.05 168.769-4.7 169.449-5.35 170.069-6.23 170.699-7.1 171.169-7.95 171.649-8.8 171.849-9.2L171.849-9.2Q172.049-9.6 172.249-10.23 172.449-10.85 172.619-11.5 172.799-12.15 172.919-12.78 173.049-13.4 173.099-13.85L173.099-13.85Q173.349-16.1 172.999-17.32 172.649-18.55 171.849-18.55L171.849-18.55Q171.249-18.55 170.599-18.18 169.949-17.8 169.369-17.2 168.799-16.6 168.349-15.88 167.899-15.15 167.699-14.4L167.699-14.4Q167.449-13.55 167.349-13.55L167.349-13.55Q167.199-13.55 167.199-14.4L167.199-14.4Q167.349-15.35 167.849-16.28 168.349-17.2 169.099-17.93 169.849-18.65 170.749-19.13 171.649-19.6 172.599-19.6L172.599-19.6Q173.549-19.6 174.019-18.93 174.499-18.25 174.699-17.28 174.899-16.3 174.869-15.28 174.849-14.25 174.749-13.65L174.749-13.65Q174.549-12.3 174.119-11.03 173.699-9.75 173.099-8.45L173.099-8.45Q172.799-7.85 172.199-6.98 171.599-6.1 170.819-5.3 170.049-4.5 169.169-3.93 168.299-3.35 167.549-3.35ZM169.149-2.4L169.149-2.4Q169.199-2.1 168.669-1.9 168.149-1.7 167.599-1.7L167.599-1.7Q166.049-1.75 165.219-2.7 164.399-3.65 164.069-4.95 163.749-6.25 163.769-7.65 163.799-9.05 163.899-10L163.899-10Q164.099-11.65 164.699-13.7 165.299-15.75 166.399-17.55 167.499-19.35 169.099-20.58 170.699-21.8 172.899-21.8L172.899-21.8Q174.349-21.8 175.219-21.05 176.099-20.3 176.519-19.2 176.949-18.1 177.019-16.82 177.099-15.55 176.949-14.5L176.949-14.5Q176.849-13.35 176.599-12.4 176.349-11.45 175.899-10.3L175.899-10.3Q175.749-9.95 175.499-9.5 175.249-9.05 174.949-9.1L174.949-9.1Q174.799-9.15 174.869-9.5 174.949-9.85 175.069-10.38 175.199-10.9 175.349-11.48 175.499-12.05 175.549-12.55L175.549-12.55Q175.649-13.4 175.669-14.68 175.699-15.95 175.469-17.15 175.249-18.35 174.649-19.2 174.049-20.05 172.849-20.05L172.849-20.05Q171.099-20.05 169.619-18.93 168.149-17.8 167.049-16.18 165.949-14.55 165.269-12.78 164.599-11 164.449-9.65L164.449-9.65Q164.349-8.85 164.399-7.65 164.449-6.45 164.769-5.28 165.099-4.1 165.849-3.25 166.599-2.4 167.899-2.35L167.899-2.35Q168.299-2.3 168.669-2.43 169.049-2.55 169.149-2.4ZM186.849-16.65L186.849-16.65Q186.449-14.95 185.719-13.08 184.999-11.2 184.099-9.6L184.099-9.6Q184.099-9.5 183.969-9.28 183.849-9.05 183.649-9.05L183.649-9.05Q183.549-9.05 183.519-9.35 183.499-9.65 183.549-9.75L183.549-9.75Q183.549-10.55 183.749-11.88 183.949-13.2 184.249-14.05L184.249-14.05Q184.349-14.35 184.569-15.5 184.799-16.65 184.969-18.07 185.149-19.5 185.169-20.83 185.199-22.15 184.849-22.8L184.849-22.8 184.849-23Q185.049-23.15 185.299-22.9L185.299-22.9Q185.949-22.35 186.319-21.55 186.699-20.75 186.869-19.88 187.049-19 187.019-18.15 186.999-17.3 186.849-16.65ZM188.799-16.85L188.799-16.85Q189.349-17.55 189.849-17.85 190.349-18.15 190.849-18.35L190.849-18.35Q190.899-18.35 191.099-18.4 191.299-18.45 191.399-18.3L191.399-18.3Q191.499-18.15 191.349-17.95 191.199-17.75 191.099-17.65L191.099-17.65Q190.749-17.3 190.319-16.88 189.899-16.45 189.549-16.05L189.549-16.05Q189.049-15.5 188.749-14.78 188.449-14.05 188.299-13.3L188.299-13.3Q189.149-14.2 189.919-15 190.699-15.8 191.599-16.5L191.599-16.5Q192.749-17.35 193.599-18.7 194.449-20.05 194.799-22.65L194.799-22.65Q194.899-22.9 195.049-22.95 195.199-23 195.199-22.6L195.199-22.6Q195.349-19.7 194.599-18 193.849-16.3 192.349-15.15L192.349-15.15Q191.549-14.55 190.749-13.85 189.949-13.15 189.219-12.3 188.499-11.45 187.899-10.3 187.299-9.15 186.849-7.65L186.849-7.65Q186.499-6.5 186.149-5.48 185.799-4.45 185.399-3.5L185.399-3.5Q185.299-3.15 185.099-3.15L185.099-3.15Q184.949-3.2 184.949-3.65L184.949-3.65Q184.699-6.05 185.269-8.43 185.849-10.8 186.649-13.35L186.649-13.35Q186.999-14.6 187.469-15.85 187.949-17.1 187.899-18.7L187.899-18.7Q187.899-19.25 188.349-19.85 188.799-20.45 189.449-20.98 190.099-21.5 190.799-21.88 191.499-22.25 191.999-22.4L191.999-22.4Q192.449-22.55 192.449-22.35 192.449-22.15 192.149-21.85L192.149-21.85Q191.099-20.9 190.019-19.6 188.949-18.3 188.799-16.85ZM184.449-0.05L184.449-0.05Q184.399 0 184.369-0.03 184.349-0.05 184.099-0.2L184.099-0.2Q182.599-1.3 181.749-2.6 180.899-3.9 180.519-5.28 180.149-6.65 180.199-8.03 180.249-9.4 180.549-10.7L180.549-10.7Q180.949-12.45 181.519-14.18 182.099-15.9 182.599-17.53 183.099-19.15 183.349-20.73 183.599-22.3 183.349-23.75L183.349-23.75Q183.349-23.85 183.499-23.9L183.499-23.9Q183.549-23.9 183.599-23.83 183.649-23.75 183.699-23.7L183.699-23.7Q184.649-22.1 184.649-20.43 184.649-18.75 184.199-17.03 183.749-15.3 183.069-13.53 182.399-11.75 181.999-9.95L181.999-9.95Q181.499-7.65 181.919-5.05 182.349-2.45 184.249-0.4L184.249-0.4Q184.349-0.25 184.449-0.2 184.549-0.15 184.449-0.05ZM185.949 0L185.949 0Q185.849 0 185.749-0.05L185.749-0.05 185.549-0.15Q184.849-0.6 184.299-1.13 183.749-1.65 183.349-2.65L183.349-2.65Q183.199-3 183.099-3.58 182.999-4.15 182.969-4.65 182.949-5.15 183.019-5.5 183.099-5.85 183.299-5.8L183.299-5.8Q183.449-5.8 183.619-5.4 183.799-5 183.899-4.6L183.899-4.6Q183.999-4.05 184.119-3.55 184.249-3.05 184.449-2.65L184.449-2.65Q184.999-1.4 185.899-0.25L185.899-0.25Q185.999 0 185.949 0ZM194.099-22.45L194.099-22.45Q194.099-21.4 193.499-20.6 192.899-19.8 192.049-19.25L192.049-19.25Q191.899-19.15 191.849-19.28 191.799-19.4 191.799-19.45L191.799-19.45Q191.799-19.75 192.049-20.18 192.299-20.6 192.619-21.08 192.949-21.55 193.249-22.05 193.549-22.55 193.649-22.95L193.649-22.95Q193.799-23.2 193.949-22.95 194.099-22.7 194.099-22.45Z" fill="#000000" data-fill-palette-color="primary"></path></g></svg></g></svg></g></svg></g></svg></g><g><svg viewBox="0 0 197.32002903709724 197.32002903709724" height="197.32002903709724" width="197.32002903709724"><g><svg></svg></g><g id="icon-0"><svg viewBox="0 0 197.32002903709724 197.32002903709724" height="197.32002903709724" width="197.32002903709724"><g><path d="M0 98.66c0-54.488 44.172-98.66 98.66-98.66 54.488 0 98.66 44.172 98.66 98.66 0 54.488-44.172 98.66-98.66 98.66-54.488 0-98.66-44.172-98.66-98.66zM98.66 190.012c50.452 0 91.352-40.9 91.352-91.352 0-50.452-40.9-91.352-91.352-91.352-50.452 0-91.352 40.9-91.352 91.352 0 50.452 40.9 91.352 91.352 91.352z" data-fill-palette-color="accent" fill="#000000" stroke="transparent"></path></g><g transform="matrix(1,0,0,1,41.565645706912576,46.64766838950701)"><svg viewBox="0 0 114.18873762327209 104.02469225808322" height="104.02469225808322" width="114.18873762327209"><g><svg xmlns="http://www.w3.org/2000/svg" viewBox="8.150088894702716 12.733160154358444 82.19737635098711 74.88091170201926" x="0" y="0" height="104.02469225808322" width="114.18873762327209" class="icon-dxe-0" data-fill-palette-color="accent" id="dxe-0"><path d="M25.7 24.14V19.06C25.7 17.59 26.38 14.66 25.07 13.5S20.07 12.8 18.42 12.95A60.4 60.4 0 0 0 9.32 14.73 0.88 0.88 0 0 0 8.93 16.21 61 61 0 0 0 8.45 30 0.93 0.93 0 0 0 9.29 31.59 34.4 34.4 0 0 1 24.29 31.19 0.91 0.91 0 0 0 25.29 30.77C25.99 30.85 26.73 30.17 26.21 29.47 25.23 28.21 25.7 25.64 25.7 24.14M10.24 29.55A59 59 0 0 1 10.76 16.26 51.5 51.5 0 0 1 18.43 14.78 13.6 13.6 0 0 1 22.6 14.72C24.37 15.15 23.9 16.21 23.89 17.79V25.41A13.2 13.2 0 0 0 24.09 29.34 36.6 36.6 0 0 0 10.24 29.55" fill="#000000" data-fill-palette-color="accent"></path><path d="M25.7 52.11V47C25.7 45.53 26.38 42.6 25.07 41.44S20.07 40.74 18.42 40.89A60.4 60.4 0 0 0 9.32 42.67 0.88 0.88 0 0 0 8.93 44.15 61 61 0 0 0 8.45 58 0.93 0.93 0 0 0 9.29 59.59 34.4 34.4 0 0 1 24.29 59.19 0.91 0.91 0 0 0 25.29 58.77C25.99 58.85 26.73 58.17 26.21 57.47 25.23 56.18 25.7 53.61 25.7 52.11M10.24 57.52A59 59 0 0 1 10.76 44.23 51.5 51.5 0 0 1 18.43 42.75 13.6 13.6 0 0 1 22.6 42.69C24.37 43.12 23.9 44.18 23.89 45.76V53.38A13.2 13.2 0 0 0 24.09 57.31 36.6 36.6 0 0 0 10.24 57.52" fill="#000000" data-fill-palette-color="accent"></path><path d="M25.7 80.08V75C25.7 73.53 26.38 70.6 25.07 69.44S20.07 68.74 18.42 68.89A60.4 60.4 0 0 0 9.32 70.67 0.88 0.88 0 0 0 8.93 72.15 61 61 0 0 0 8.45 86 0.93 0.93 0 0 0 9.29 87.59 34.4 34.4 0 0 1 24.29 87.19 0.91 0.91 0 0 0 25.29 86.77C25.99 86.85 26.73 86.17 26.21 85.47 25.23 84.15 25.7 81.58 25.7 80.08M10.24 85.49A59 59 0 0 1 10.76 72.2 51.5 51.5 0 0 1 18.43 70.72 13.6 13.6 0 0 1 22.6 70.66C24.37 71.09 23.9 72.15 23.89 73.73V81.35A13.2 13.2 0 0 0 24.09 85.28 36.6 36.6 0 0 0 10.24 85.49" fill="#000000" data-fill-palette-color="accent"></path><path d="M66.13 24C73.67 25.26 81.08 26.29 88.5 23.88 89.61 23.52 89.14 21.76 88.02 22.12 78.76 25.12 69.6 22.49 60.29 21.22A87.8 87.8 0 0 0 35.2 21.53C34.04 21.7 34.53 23.46 35.68 23.29 46 21.76 55.87 22.3 66.13 24" fill="#000000" data-fill-palette-color="accent"></path><path d="M61.5 48A87.8 87.8 0 0 0 36.41 48.31C35.25 48.48 35.74 50.24 36.89 50.07 47.2 48.51 57.08 49.07 67.34 50.77 74.88 52.03 82.29 53.06 89.71 50.65 90.82 50.29 90.35 48.53 89.23 48.89 80 51.9 70.81 49.27 61.5 48" fill="#000000" data-fill-palette-color="accent"></path><path d="M89.23 75.65C79.97 78.65 70.81 76.02 61.5 74.75A87.8 87.8 0 0 0 36.41 75.06C35.25 75.23 35.74 76.99 36.89 76.82 47.2 75.26 57.08 75.82 67.34 77.52 74.88 78.78 82.29 79.81 89.71 77.4 90.83 77 90.35 75.28 89.23 75.65" fill="#000000" data-fill-palette-color="accent"></path></svg></g></svg></g></svg></g></svg></g></svg></g><defs></defs></svg><rect width="395.52" height="123.66285040519499" fill="none" stroke="none" visibility="hidden"></rect></g></svg></g></svg>